<?xml version="1.0" standalone="no"?>
<!DOCTYPE svg PUBLIC "-//W3C//DTD SVG 20010904//EN"
 "http://www.w3.org/TR/2001/REC-SVG-20010904/DTD/svg10.dtd">
<svg version="1.0" xmlns="http://www.w3.org/2000/svg"
 width="458.000000pt" height="458.000000pt" viewBox="0 0 458.000000 458.000000"
 preserveAspectRatio="xMidYMid meet">
<metadata>
Created by potrace 1.14, written by Peter Selinger 2001-2017
</metadata>
<g transform="translate(0.000000,458.000000) scale(0.100000,-0.100000)"
fill="#000000" stroke="none">
<path d="M1406 4551 c-7 -25 -15 -71 -22 -126 -3 -27 -8 -58 -9 -67 -2 -9 -7
-48 -10 -85 -4 -37 -8 -78 -10 -91 -4 -22 -17 -192 -19 -244 -1 -14 -4 -29 -8
-33 -3 -4 -68 -15 -145 -25 -307 -42 -656 -129 -938 -234 l-120 -44 3 -49 c6
-101 114 -596 176 -808 1 -5 8 -30 15 -55 45 -164 154 -481 231 -675 207 -520
529 -1094 844 -1505 44 -58 90 -116 102 -130 13 -14 44 -50 71 -80 68 -78 236
-250 240 -246 2 1 -32 57 -75 122 -409 621 -753 1264 -967 1809 -107 273 -246
719 -229 735 22 20 174 93 277 134 170 67 434 133 647 161 25 3 56 8 70 10 14
2 54 7 90 10 36 4 76 8 90 10 14 2 59 7 100 10 41 3 89 8 105 10 17 2 66 7
111 10 44 3 89 8 100 10 10 2 32 4 48 4 50 2 25 9 -84 25 -236 34 -592 39
-770 11 -14 -2 -47 -6 -75 -10 -51 -6 -141 -21 -185 -31 -14 -3 -37 -7 -52
-10 -14 -3 -75 -18 -135 -35 -59 -16 -115 -31 -123 -34 -27 -7 -153 -52 -209
-74 -30 -12 -57 -18 -61 -14 -11 13 -31 87 -51 190 -34 179 3 326 99 386 41
26 203 91 327 130 133 43 210 62 395 102 35 7 209 35 255 40 28 4 61 8 75 10
14 2 61 7 105 10 44 4 96 8 115 10 118 13 345 18 700 17 445 -2 499 -4 580
-21 30 -7 69 -14 85 -16 17 -3 41 -7 55 -10 14 -3 41 -8 60 -11 19 -4 38 -8
41 -10 3 -2 -2 -41 -13 -86 -10 -46 -21 -99 -24 -118 -3 -19 -10 -55 -16 -80
-5 -25 -12 -56 -14 -70 -69 -362 -251 -1073 -379 -1480 -25 -80 -47 -153 -50
-163 -2 -9 -7 -22 -11 -28 -4 -6 -10 -25 -15 -43 -14 -57 -149 -426 -183 -501
-44 -97 -181 -483 -174 -490 14 -14 378 323 513 475 308 346 667 859 937 1340
14 25 43 77 65 115 117 207 208 377 373 700 68 132 127 246 132 252 25 31 -10
81 -97 139 -276 187 -736 416 -1070 535 -49 17 -99 35 -110 40 -81 33 -401
124 -545 154 -41 9 -84 18 -95 21 -25 5 -59 12 -160 30 -131 24 -265 43 -348
49 -43 4 -87 8 -97 10 -28 5 -264 17 -402 19 -109 2 -128 0 -132 -13z"/>
<path d="M2135 2611 c-112 -32 -203 -108 -255 -215 -107 -219 -19 -476 199
-580 60 -28 75 -31 166 -31 92 0 105 3 169 32 82 39 168 124 202 198 68 149
52 315 -42 445 -99 138 -275 198 -439 151z m232 -146 c123 -60 189 -207 152
-340 -28 -102 -118 -186 -222 -206 -49 -10 -67 -9 -125 6 -58 16 -75 26 -122
74 -225 230 30 605 317 466z"/>
<path d="M1856 1493 c-120 -41 -198 -149 -200 -273 -1 -85 6 -118 38 -169 62
-97 147 -145 257 -144 207 2 346 231 257 424 -36 80 -107 143 -183 164 -47 13
-130 12 -169 -2z m162 -98 c102 -43 149 -153 111 -259 -22 -60 -51 -93 -104
-117 -203 -94 -380 182 -216 336 57 55 137 70 209 40z"/>
</g>
</svg>
