<svg width="32" height="22" viewBox="0 0 32 22" fill="none" xmlns="http://www.w3.org/2000/svg">
<g opacity="0.8">
<path d="M30.4609 5.88559C30.1818 4.95547 29.4377 4.16487 28.2751 3.5603C28.2751 3.5603 27.8565 3.32777 27.1124 3.00223C26.6939 2.81621 26.2753 2.67669 25.8568 2.53717C23.764 1.79308 20.3226 0.95597 15.951 1.00248H15.765C8.13805 0.909464 3.53396 3.46729 3.34794 3.5603C2.13879 4.21138 1.39469 4.95547 1.11566 5.88559C0.790118 6.95523 1.25518 7.74583 1.25518 7.79234L2.41782 10.3036C2.46433 10.3967 2.55734 10.4897 2.69686 10.5362C2.83638 10.5827 2.92939 10.5827 3.06891 10.4897L9.67274 7.09475C9.90527 7.00174 9.99828 6.7227 9.90527 6.49017L9.25419 5.04849C11.905 3.88584 15.672 3.83934 15.7185 3.83934H15.9045C15.9045 3.83934 19.2529 3.83934 22.3223 5.09499L21.6713 6.53668C21.5782 6.7692 21.6713 7.04824 21.9038 7.14125L28.5076 10.5362C28.5541 10.5827 28.6471 10.5827 28.7401 10.5827C28.7867 10.5827 28.8332 10.5827 28.8797 10.5362C29.0192 10.4897 29.1122 10.3967 29.1587 10.3036L30.3213 7.83884C30.2748 7.74583 30.7399 6.95523 30.4609 5.88559ZM29.4377 7.37378L28.4611 9.46655L22.6479 6.49017L23.299 5.04849C23.3455 4.95548 23.3455 4.81596 23.299 4.67644C23.2525 4.58343 23.1594 4.44391 23.0664 4.39741C19.6715 2.90922 15.9975 2.90922 15.8115 2.90922H15.6255C15.4395 2.90922 11.2074 3.00223 8.37057 4.39741C8.13804 4.49042 8.04503 4.76945 8.13804 5.00198L8.78913 6.44366L2.97589 9.42004L1.99927 7.32728C1.99927 7.32728 1.72023 6.7692 1.90626 6.11812C2.09228 5.46704 2.69686 4.86247 3.67348 4.3509C3.71999 4.30439 8.13804 1.88609 15.2534 1.88609C15.3465 1.88609 15.486 1.88609 15.579 1.88609H15.765C20.0435 1.83958 23.3455 2.67669 25.3452 3.37428C25.7638 3.5138 26.1823 3.69982 26.5544 3.83934C27.252 4.11837 27.624 4.3509 27.624 4.3509C28.6006 4.86247 29.1587 5.46704 29.3912 6.11812C29.7633 6.81571 29.4842 7.32728 29.4377 7.37378Z" fill="#6F787B" fill-opacity="0.7"/>
<path d="M30.7029 5.82245L30.7028 5.82249C30.8551 6.40637 30.8037 6.91332 30.7224 7.28224C30.6837 7.45808 30.6378 7.60376 30.6055 7.70647L30.6012 7.71987C30.5915 7.75083 30.584 7.77492 30.5784 7.79397L30.5993 7.83566L30.5475 7.9455L29.3848 10.4103L29.3824 10.4155L29.3823 10.4155C29.3129 10.5542 29.1854 10.6829 29.0067 10.7556C28.9005 10.8331 28.7921 10.8328 28.7452 10.8327L28.7401 10.8327L28.7339 10.8327C28.6919 10.8327 28.6298 10.8327 28.5711 10.8244C28.5215 10.8173 28.4415 10.8003 28.369 10.746L21.7988 7.3684C21.4255 7.21092 21.3056 6.77767 21.4391 6.44383L21.4432 6.43368L21.4434 6.43378L21.9868 5.23063C20.5532 4.67719 19.0749 4.39138 17.9305 4.24425C17.3272 4.16668 16.8189 4.12793 16.4621 4.10859C16.2838 4.09892 16.1434 4.09411 16.0481 4.09171C16.0005 4.09051 15.9641 4.08992 15.9398 4.08962L15.9127 4.08937L15.9062 4.08934L15.9048 4.08934L15.9045 4.08934H15.9045H15.9045H15.7185C15.7187 4.08934 15.7185 4.08934 15.7181 4.08934C15.7169 4.08935 15.7134 4.08939 15.707 4.08948L15.6724 4.09009C15.6426 4.0907 15.5993 4.09174 15.544 4.09348C15.4332 4.09697 15.274 4.10324 15.0756 4.11438C14.6788 4.13666 14.1263 4.17838 13.4934 4.25606C12.2985 4.4027 10.833 4.67567 9.58758 5.17932L10.1331 6.38727L10.1376 6.39723L10.1374 6.39732C10.2709 6.73117 10.151 7.16442 9.77769 7.32189L3.19493 10.706C3.10742 10.7625 3.01423 10.8034 2.90776 10.814C2.79853 10.8249 2.7013 10.8012 2.6178 10.7733C2.41389 10.7054 2.26966 10.5663 2.19422 10.4155L2.19085 10.4087L2.19096 10.4087L1.02831 7.89737L1.00518 7.8474V7.83739C1.00427 7.83527 1.00332 7.83308 1.00235 7.8308C0.990627 7.80354 0.973854 7.76452 0.955121 7.71715C0.913211 7.61119 0.860748 7.46183 0.819392 7.27732C0.736593 6.9079 0.698509 6.39794 0.876345 5.81328C1.18251 4.79332 1.99214 4.0064 3.22942 3.34018L3.23609 3.33659L3.23614 3.33669C3.24272 3.3334 3.25421 3.32738 3.27053 3.31881C3.74635 3.06927 8.33602 0.662198 15.7665 0.752476H15.9497C20.3518 0.705822 23.8211 1.54833 25.9382 2.30079L25.9408 2.30166C26.356 2.44005 26.7839 2.5827 27.2133 2.77348C27.2135 2.77358 27.2138 2.77368 27.214 2.77378L27.1124 3.00223C27.8565 3.32777 28.2751 3.5603 28.2751 3.5603L30.7029 5.82245ZM30.7029 5.82245L30.7003 5.81376C30.396 4.79943 29.5924 3.96416 28.3932 3.33992L30.7029 5.82245ZM29.2712 7.16101C29.2617 7.18406 29.2533 7.20052 29.2478 7.21017L29.2298 7.22815L29.2112 7.26806L28.3442 9.12584L22.9737 6.37613L23.5251 5.15514C23.6089 4.98283 23.5942 4.77172 23.5361 4.59738L23.5305 4.58053L23.5226 4.56464C23.4929 4.50531 23.4495 4.43289 23.3975 4.366C23.3495 4.30438 23.2752 4.22229 23.1782 4.1738L23.1784 4.17351L23.1668 4.16844C19.7239 2.65921 16.0082 2.65922 15.8119 2.65922H15.8115H15.6255C15.5222 2.65922 14.4062 2.68311 12.958 2.88246C11.5157 3.081 9.72093 3.4565 8.26796 4.16928C7.89278 4.32593 7.77211 4.76029 7.90593 5.09483L7.9057 5.09492L7.9102 5.10488L8.46331 6.32962L3.09278 9.07933L2.22582 7.22156L2.2259 7.22152L2.22337 7.21647L2.22332 7.21636L2.2233 7.21632L2.22295 7.21563L2.22239 7.2144L2.21651 7.20143C2.21103 7.18895 2.20269 7.16909 2.19288 7.14272C2.1732 7.08983 2.14793 7.01173 2.12764 6.91535C2.08684 6.72152 2.0679 6.46237 2.14664 6.1868C2.30492 5.63283 2.83683 5.07137 3.78948 4.57236L3.82328 4.55466L3.83026 4.54768C3.8365 4.5441 3.84438 4.53965 3.854 4.53433C3.88753 4.51579 3.93815 4.48884 4.00565 4.4546C4.14048 4.38622 4.34043 4.28993 4.60227 4.17511C5.12588 3.94549 5.89571 3.64232 6.88561 3.34016C8.86545 2.73585 11.7241 2.13609 15.2534 2.13609H15.254H15.2545H15.2551H15.2556H15.2562H15.2567H15.2573H15.2578H15.2584H15.2589H15.2595H15.2601H15.2606H15.2612H15.2617H15.2623H15.2629H15.2634H15.264H15.2646H15.2651H15.2657H15.2663H15.2668H15.2674H15.268H15.2685H15.2691H15.2697H15.2703H15.2708H15.2714H15.272H15.2726H15.2731H15.2737H15.2743H15.2749H15.2755H15.276H15.2766H15.2772H15.2778H15.2784H15.279H15.2796H15.2802H15.2808H15.2813H15.2819H15.2825H15.2831H15.2837H15.2843H15.2849H15.2855H15.2861H15.2867H15.2873H15.2879H15.2885H15.2891H15.2897H15.2903H15.2909H15.2915H15.2921H15.2927H15.2934H15.294H15.2946H15.2952H15.2958H15.2964H15.297H15.2976H15.2982H15.2989H15.2995H15.3001H15.3007H15.3013H15.3019H15.3026H15.3032H15.3038H15.3044H15.3051H15.3057H15.3063H15.3069H15.3075H15.3082H15.3088H15.3094H15.3101H15.3107H15.3113H15.3119H15.3126H15.3132H15.3138H15.3145H15.3151H15.3157H15.3164H15.317H15.3176H15.3183H15.3189H15.3195H15.3202H15.3208H15.3215H15.3221H15.3227H15.3234H15.324H15.3247H15.3253H15.326H15.3266H15.3272H15.3279H15.3285H15.3292H15.3298H15.3305H15.3311H15.3318H15.3324H15.3331H15.3337H15.3344H15.335H15.3357H15.3363H15.337H15.3376H15.3383H15.3389H15.3396H15.3402H15.3409H15.3415H15.3422H15.3429H15.3435H15.3442H15.3448H15.3455H15.3461H15.3468H15.3475H15.3481H15.3488H15.3494H15.3501H15.3508H15.3514H15.3521H15.3528H15.3534H15.3541H15.3547H15.3554H15.3561H15.3567H15.3574H15.3581H15.3587H15.3594H15.3601H15.3607H15.3614H15.3621H15.3627H15.3634H15.3641H15.3647H15.3654H15.3661H15.3668H15.3674H15.3681H15.3688H15.3694H15.3701H15.3708H15.3715H15.3721H15.3728H15.3735H15.3741H15.3748H15.3755H15.3762H15.3768H15.3775H15.3782H15.3789H15.3795H15.3802H15.3809H15.3816H15.3822H15.3829H15.3836H15.3843H15.3849H15.3856H15.3863H15.387H15.3877H15.3883H15.389H15.3897H15.3904H15.391H15.3917H15.3924H15.3931H15.3938H15.3944H15.3951H15.3958H15.3965H15.3972H15.3978H15.3985H15.3992H15.3999H15.4006H15.4012H15.4019H15.4026H15.4033H15.404H15.4046H15.4053H15.406H15.4067H15.4074H15.408H15.4087H15.4094H15.4101H15.4108H15.4114H15.4121H15.4128H15.4135H15.4142H15.4149H15.4155H15.4162H15.4169H15.4176H15.4183H15.4189H15.4196H15.4203H15.421H15.4217H15.4223H15.423H15.4237H15.4244H15.4251H15.4257H15.4264H15.4271H15.4278H15.4285H15.4292H15.4298H15.4305H15.4312H15.4319H15.4326H15.4332H15.4339H15.4346H15.4353H15.436H15.4366H15.4373H15.438H15.4387H15.4393H15.44H15.4407H15.4414H15.4421H15.4427H15.4434H15.4441H15.4448H15.4455H15.4461H15.4468H15.4475H15.4482H15.4488H15.4495H15.4502H15.4509H15.4515H15.4522H15.4529H15.4536H15.4542H15.4549H15.4556H15.4563H15.4569H15.4576H15.4583H15.459H15.4596H15.4603H15.461H15.4616H15.4623H15.463H15.4637H15.4643H15.465H15.4657H15.4663H15.467H15.4677H15.4684H15.469H15.4697H15.4704H15.471H15.4717H15.4724H15.473H15.4737H15.4744H15.475H15.4757H15.4764H15.477H15.4777H15.4783H15.479H15.4797H15.4803H15.481H15.4817H15.4823H15.483H15.4836H15.4843H15.485H15.4856H15.4863H15.4869H15.4876H15.4883H15.4889H15.4896H15.4902H15.4909H15.4915H15.4922H15.4928H15.4935H15.4942H15.4948H15.4955H15.4961H15.4968H15.4974H15.4981H15.4987H15.4994H15.5H15.5007H15.5013H15.502H15.5026H15.5033H15.5039H15.5045H15.5052H15.5058H15.5065H15.5071H15.5078H15.5084H15.509H15.5097H15.5103H15.511H15.5116H15.5122H15.5129H15.5135H15.5142H15.5148H15.5154H15.5161H15.5167H15.5173H15.518H15.5186H15.5192H15.5199H15.5205H15.5211H15.5217H15.5224H15.523H15.5236H15.5243H15.5249H15.5255H15.5261H15.5268H15.5274H15.528H15.5286H15.5292H15.5299H15.5305H15.5311H15.5317H15.5323H15.5329H15.5336H15.5342H15.5348H15.5354H15.536H15.5366H15.5372H15.5379H15.5385H15.5391H15.5397H15.5403H15.5409H15.5415H15.5421H15.5427H15.5433H15.5439H15.5445H15.5451H15.5457H15.5463H15.5469H15.5475H15.5481H15.5487H15.5493H15.5499H15.5505H15.5511H15.5517H15.5523H15.5529H15.5534H15.554H15.5546H15.5552H15.5558H15.5564H15.557H15.5575H15.5581H15.5587H15.5593H15.5599H15.5604H15.561H15.5616H15.5622H15.5627H15.5633H15.5639H15.5645H15.565H15.5656H15.5662H15.5667H15.5673H15.5679H15.5684H15.569H15.5696H15.5701H15.5707H15.5713H15.5718H15.5724H15.5729H15.5735H15.574H15.5746H15.5751H15.5757H15.5762H15.5768H15.5773H15.5779H15.5784H15.579L15.765 2.1361L15.7677 2.13607C20.0121 2.08994 23.285 2.92039 25.2629 3.61033L25.2629 3.61035L25.2662 3.61145C25.5233 3.69717 25.7697 3.79657 26.0136 3.89496C26.164 3.95564 26.3135 4.01595 26.464 4.07243C26.8036 4.20837 27.0629 4.33249 27.2361 4.42191C27.3229 4.46672 27.3881 4.5028 27.4309 4.52727C27.4523 4.5395 27.4682 4.54883 27.4783 4.55489L27.4892 4.56148L27.4914 4.56285L27.4915 4.5629L27.4916 4.56294L27.4916 4.56297L27.4917 4.56301L27.4917 4.56304L27.4996 4.56794L27.508 4.57236C28.4494 5.06546 28.951 5.62891 29.1558 6.20221L29.162 6.21953L29.1706 6.23577C29.3308 6.53611 29.3462 6.78548 29.3236 6.95749C29.3121 7.04499 29.2904 7.11416 29.2712 7.16101ZM29.244 7.21653C29.2432 7.21788 29.2427 7.21844 29.2428 7.21834C29.2428 7.21825 29.2432 7.21762 29.244 7.21653Z" stroke="#6F787B" stroke-opacity="0.7" stroke-width="0.5"/>
<path d="M21.2527 8.86197V8.81546V7.60631C21.2527 7.04824 20.7876 6.58318 20.2296 6.58318H18.5554C17.9973 6.58318 17.5322 7.04824 17.5322 7.60631V8.11788C17.5322 8.16438 17.4857 8.21089 17.4392 8.21089H13.8118C13.7653 8.21089 13.7187 8.16438 13.7187 8.11788V7.46679C13.7187 6.90872 13.2537 6.44366 12.6956 6.44366H11.2539C10.6959 6.44366 10.2308 6.90872 10.2308 7.46679V8.67594V8.72245L5.06866 15.2333C4.92914 15.4193 4.83613 15.6518 4.83613 15.8379V19.8839C4.83613 20.4419 5.30118 20.907 5.85926 20.907H8.83563C9.11467 20.907 9.30069 20.721 9.30069 20.4419C9.30069 20.1629 9.11467 19.9769 8.83563 19.9769H5.85926C5.81275 19.9769 5.76624 19.9304 5.76624 19.8839V15.8379V15.7913L10.9284 9.28052C11.0679 9.0945 11.1609 8.86197 11.1609 8.67594V7.46679C11.1609 7.42029 11.2074 7.37378 11.2539 7.37378H12.6956C12.7421 7.37378 12.7886 7.42029 12.7886 7.46679V8.11788C12.7886 8.67595 13.2537 9.141 13.8118 9.141H17.4392C17.9973 9.141 18.4623 8.67595 18.4623 8.11788V7.60631C18.4623 7.55981 18.5089 7.5133 18.5554 7.5133H20.2296C20.2761 7.5133 20.3226 7.55981 20.3226 7.60631V8.81546C20.3226 9.04799 20.4156 9.23402 20.5086 9.42004L25.2057 15.8379V15.8844V19.9769C25.2057 20.0234 25.1592 20.0699 25.1127 20.0699H10.3703C10.0913 20.0699 9.90527 20.2559 9.90527 20.5349C9.90527 20.814 10.0913 21 10.3703 21H25.1127C25.6708 21 26.1358 20.5349 26.1358 19.9769V15.8844C26.1358 15.6518 26.0893 15.4658 25.9498 15.2798L21.2527 8.86197Z" fill="#6F787B" fill-opacity="0.7"/>
<path d="M4.87276 15.078L4.87269 15.0779L4.86866 15.0833C4.7078 15.2977 4.58613 15.5817 4.58613 15.8379V19.8839C4.58613 20.58 5.16311 21.157 5.85926 21.157H8.83563C9.03196 21.157 9.21499 21.0905 9.34957 20.9559C9.48415 20.8213 9.55069 20.6383 9.55069 20.4419C9.55069 20.2456 9.48415 20.0626 9.34957 19.928C9.21499 19.7934 9.03196 19.7269 8.83563 19.7269H6.01624V15.8784L11.1243 9.43584L11.1244 9.4359L11.1284 9.43052C11.2892 9.21605 11.4109 8.93205 11.4109 8.67594V7.62378H12.5386V8.11788C12.5386 8.81402 13.1156 9.391 13.8118 9.391H17.4392C18.1354 9.391 18.7123 8.81402 18.7123 8.11788V7.7633H20.0726V8.81546C20.0726 9.10749 20.1886 9.33931 20.278 9.51787L20.285 9.53184L20.2944 9.55069L20.3069 9.56769L24.9557 15.9196V19.8199H10.3703C10.174 19.8199 9.99096 19.8864 9.85638 20.021C9.7218 20.1556 9.65527 20.3386 9.65527 20.5349C9.65527 20.7313 9.7218 20.9143 9.85638 21.0489C9.99096 21.1835 10.174 21.25 10.3703 21.25H25.1127C25.8088 21.25 26.3858 20.673 26.3858 19.9769V15.8844C26.3858 15.6114 26.3291 15.3694 26.1508 15.1311C26.1504 15.1306 26.1501 15.1302 26.1498 15.1298L21.5027 8.78026V7.60631C21.5027 6.91017 20.9257 6.33318 20.2296 6.33318H18.5554C17.8592 6.33318 17.2822 6.91017 17.2822 7.60631V7.96089H13.9687V7.46679C13.9687 6.77065 13.3918 6.19366 12.6956 6.19366H11.2539C10.5578 6.19366 9.98081 6.77065 9.98081 7.46679V8.63537L4.87276 15.078Z" stroke="#6F787B" stroke-opacity="0.7" stroke-width="0.5"/>
<path d="M19.5785 14.6287C19.5785 12.3964 17.7647 10.5827 15.5325 10.5827C13.3002 10.5827 11.4865 12.3964 11.4865 14.6287C11.4865 16.861 13.3002 18.6747 15.5325 18.6747C17.7647 18.6747 19.5785 16.861 19.5785 14.6287ZM12.3701 14.6287C12.3701 12.908 13.7652 11.5128 15.486 11.5128C17.2067 11.5128 18.6019 12.908 18.6019 14.6287C18.6019 16.3494 17.2067 17.7446 15.486 17.7446C13.7652 17.7446 12.3701 16.3494 12.3701 14.6287Z" fill="#6F787B" fill-opacity="0.7"/>
<path d="M19.8285 14.6287C19.8285 12.2583 17.9028 10.3327 15.5325 10.3327C13.1621 10.3327 11.2365 12.2583 11.2365 14.6287C11.2365 16.999 13.1621 18.9247 15.5325 18.9247C17.9028 18.9247 19.8285 16.999 19.8285 14.6287ZM12.6201 14.6287C12.6201 13.046 13.9033 11.7628 15.486 11.7628C17.0686 11.7628 18.3519 13.046 18.3519 14.6287C18.3519 16.2113 17.0686 17.4946 15.486 17.4946C13.9033 17.4946 12.6201 16.2113 12.6201 14.6287Z" stroke="#6F787B" stroke-opacity="0.7" stroke-width="0.5"/>
</g>
</svg>
