<svg width="692" height="195" viewBox="0 0 692 195" fill="none" xmlns="http://www.w3.org/2000/svg">
<path fill-rule="evenodd" clip-rule="evenodd" d="M284.945 113.474L285.036 110.864C285.036 110.005 285.295 109.746 286.153 109.746H316.687C319.655 109.746 324.694 111.85 326.521 113.32C328.998 115.314 330.465 118.547 330.465 122.788C330.465 126.618 329.085 129.344 327.035 131.28C325.863 132.388 320.152 134.712 318.177 134.712L285.493 134.71L284.945 113.474ZM324.135 75.8362C321.459 79.8346 321.17 81.6238 315.348 83.0661C311.618 83.9905 304.509 84.034 299.931 84.034H286.526C285.654 84.034 285.036 83.4157 285.036 82.5434V61.6758C285.036 60.8035 285.654 60.1852 286.526 60.1852H311.847C315.941 60.1852 320.155 62.2371 322.192 64.365C325.858 68.1944 324.135 70.9833 324.135 75.8362ZM247.427 33.7281V160.797C247.427 161.655 247.686 161.915 248.544 161.915H316.687C331.529 161.915 341.274 159.738 351.645 155.162C359.23 151.816 368.446 141.121 368.446 130.241V124.651C368.446 116.914 364.658 109.492 360.72 105.554C358.387 103.222 356.332 101.241 353.404 99.4605C351.598 98.3626 345.027 96.0094 344.615 94.4678C347.601 93.7716 352.93 89.0536 354.957 86.9306C355.984 85.8542 358.02 83.0366 358.755 81.7886C359.938 79.7805 360.633 77.1231 361.744 75.4635C361.744 72.6814 362.861 72.2884 362.861 69.874V62.0485C362.861 57.6064 359.376 51.3649 357.429 48.4796C354.85 44.6574 351.193 42.0639 347.149 39.7633C339.407 35.359 327.667 33.3555 315.57 33.3555H249.289C248.702 33.3555 247.878 33.5531 247.427 33.7281Z" fill="#2B2A29"/>
<path fill-rule="evenodd" clip-rule="evenodd" d="M574.739 161.915C576.744 161.915 575.856 148.871 575.856 146.264C575.856 140.799 575.856 135.334 575.856 129.868C575.856 122.836 575.048 102.519 576.228 97.4491C578.1 97.9491 628.104 161.915 630.222 161.915H660.012C661.424 161.915 661.501 159.65 661.501 158.188V36.7094L661.084 33.3623L624.637 33.3555C623.779 33.3555 623.52 33.6147 623.52 34.4735V98.9394C622.801 98.6789 598.878 69.0992 596.554 65.9301C594.013 62.4646 570.959 33.3555 569.526 33.3555H539.364C538.506 33.3555 538.247 33.6147 538.247 34.4735V160.797C538.247 161.655 538.506 161.915 539.364 161.915H574.739Z" fill="#2B2A29"/>
<path fill-rule="evenodd" clip-rule="evenodd" d="M185.347 75.4635L185.241 94.4678L185.412 132.849L185.689 161.541C186.448 161.737 186.47 161.915 187.475 161.915H222.85C223.708 161.915 223.967 161.655 223.967 160.797V157.443C223.967 138.295 223.595 116.028 223.595 95.2131C223.595 84.6554 223.595 74.0969 223.595 63.5388C223.595 58.3223 223.595 53.1054 223.595 47.8885C223.595 45.3759 224.477 33.3555 222.478 33.3555H186.73C184.628 33.3555 185.861 40.5146 185.534 42.5922C185.092 45.4099 185.241 49.3194 185.241 52.7327L185.347 71.3647V75.4635Z" fill="#2B2A29"/>
<path fill-rule="evenodd" clip-rule="evenodd" d="M416.11 92.2299C416.11 83.7997 421.686 75.2855 426.071 70.8975C430.943 66.0227 438.593 61.674 448.134 61.674H451.485C468.224 61.674 482.391 78.2234 482.391 95.2112V98.1921C482.391 107.138 478.075 117.658 473.548 122.135C468.566 127.062 461.132 132.847 451.485 132.847H446.644C438.435 132.847 429.578 127.189 425.32 122.885C421.575 119.098 416.11 108.451 416.11 101.173V92.2299ZM451.485 164.894C470.738 164.894 490.137 155.842 499.8 146.169C506.032 139.932 509.984 135.416 514.168 127.011C517.082 121.157 521.118 108.84 521.118 100.428V94.8386C521.118 76.1023 509.952 57.5176 499.992 48.5329C488.727 38.3713 472.427 30 451.113 30H449.623C410.504 30 377.756 56.8554 377.756 95.2112V100.428C377.756 121.157 388.521 136.14 399.269 146.347C409.566 156.127 427.862 164.894 447.761 164.894H451.485Z" fill="#2B2A29"/>
<path fill-rule="evenodd" clip-rule="evenodd" d="M30 33.2695H153.109V68.2196H64.8975L30 33.2695Z" fill="#EF7F1A"/>
<path fill-rule="evenodd" clip-rule="evenodd" d="M70.3848 77.7422H152.884V112.692H105.247L70.3848 77.7422Z" fill="#EF7F1A"/>
<path fill-rule="evenodd" clip-rule="evenodd" d="M114.437 122.215H152.885V161.704L114.437 122.215Z" fill="#EF7F1A"/>
</svg>
